<?xml version="1.0" encoding="UTF-8"?>
<!DOCTYPE svg PUBLIC "-//W3C//DTD SVG 1.1//EN" "http://www.w3.org/Graphics/SVG/1.1/DTD/svg11.dtd">
<!-- Creator: CorelDRAW X7 -->
<svg xmlns="http://www.w3.org/2000/svg" xml:space="preserve" width="40mm" height="40mm" version="1.1" style="shape-rendering:geometricPrecision; text-rendering:geometricPrecision; image-rendering:optimizeQuality; fill-rule:evenodd; clip-rule:evenodd"
viewBox="0 0 4000 4000"
 xmlns:xlink="http://www.w3.org/1999/xlink">
 <defs>
  <style type="text/css">
   <![CDATA[
    .fil0 {fill:#39393C}
    .fil1 {fill:#979799}
    .fil3 {fill:#B7B6B9}
    .fil2 {fill:white}
   ]]>
  </style>
 </defs>
 <g id="Capa_x0020_1">
  <metadata id="CorelCorpID_0Corel-Layer"/>
  <g id="_2268391189568">
   <path class="fil0" d="M2146 1680c9,-27 30,-52 57,-66l-3 124c-34,-2 -38,-27 -54,-58zm771 173c-124,-26 -113,-190 5,-212 -101,62 -86,154 -31,194 26,18 15,26 22,15 0,-2 2,2 4,3zm-489 -212c139,-6 227,-19 355,-51 124,-30 256,-57 295,62 -88,-176 -408,55 -650,-11zm495 -128c11,4 12,2 18,4 1,0 3,1 5,2l16 8c-38,19 -287,60 -351,71 -97,16 -194,11 -288,-15 -38,-10 -60,-7 -62,-44 61,-31 603,-39 657,-61 2,-1 4,-2 5,-3 2,0 4,-2 6,-3l-701 56c-12,64 -73,119 -81,134l-30 -11c-9,39 13,0 28,105 3,21 8,45 10,65 2,31 -2,30 -13,42 -40,44 10,-24 -11,10l16 21c23,27 13,19 48,20 3,-180 -24,35 -43,-177 74,60 44,-55 50,176 2,66 -10,80 24,95l16 5c-9,46 -8,-7 -11,34 -2,48 -1,-4 10,36 8,27 7,54 17,79l13 -145c5,-21 8,-3 10,-43 2,-70 -1,-143 1,-214l13 224c28,-43 76,-125 110,-153 59,-50 293,-75 385,99 41,77 26,145 15,232l342 1c-5,-60 -36,-388 -20,-414l8 73 33 -1c9,-31 10,-194 -4,-218 -54,-7 -22,33 -37,71 -30,-17 0,-40 -51,-96 -29,-32 -59,-30 -97,-51l38 -14c-3,-16 -19,-48 -8,-98 6,-25 7,7 8,-26l-94 0c3,28 3,6 8,21 4,16 4,17 4,36 1,53 -8,49 -12,67z"/>
   <path class="fil0" d="M1165 1853c32,-21 73,-40 69,-113 -4,-60 -37,-78 -75,-99 122,15 131,191 6,212zm-224 255l-4 54 339 -1 -4 -26c-2,-101 -22,-131 30,-220 28,-49 77,-91 149,-110 69,-17 177,-13 227,24 23,16 38,43 55,71 10,16 15,24 25,42 4,7 7,13 13,20l18 21c2,-50 -5,-124 12,-164 1,34 2,67 2,101 0,69 -6,41 9,96l17 181c1,-35 4,-72 9,-98 3,-13 2,-11 6,-22 8,-25 2,8 7,-19 9,-50 -5,-2 -11,-45 43,-23 40,26 40,-106 0,-50 0,-99 0,-149 32,-2 41,1 50,-27 2,21 -2,43 -6,66 -8,52 1,29 -36,43l-1 73c32,1 28,1 42,-12 28,-26 28,-8 20,-31 -6,-19 1,0 -21,-17 -1,-38 7,-70 12,-107 3,-20 4,-35 11,-49 9,-18 8,-6 13,-21 14,-53 7,-10 -4,-27 -10,8 -4,2 -12,12 -31,38 -20,76 -66,76l-2 -125c18,11 13,10 27,28l25 15c-1,-1 -2,-3 -3,-4 -28,-38 -67,-69 -73,-120l-702 -59c39,27 569,41 668,64 -2,41 -19,35 -59,46 -99,27 -185,32 -288,16 -58,-9 -322,-53 -355,-71 11,-17 14,-10 41,-10 -7,-24 -21,-50 -10,-101 5,-27 6,8 8,-27l-93 -1c2,36 27,43 -3,130l40 0c-6,35 -32,-2 -89,56 -56,57 -32,69 -54,101l-10 -54c-6,-27 -31,-27 -38,0l-2 32c0,18 0,36 0,54 0,35 -5,84 5,111l31 3c12,-25 1,-28 6,-54l6 -15c0,-1 2,-3 3,-4 3,93 -22,256 -20,360zm63 -450c33,-130 192,-92 288,-70 130,31 215,48 357,53 -134,54 -423,-64 -529,-59 -55,3 -107,39 -116,76z"/>
   <polygon class="fil0" points="732,2327 3337,2330 3336,2241 734,2243 "/>
   <path class="fil1" d="M732 2327l41 8c353,0 2498,8 2566,-3 5,-29 8,-67 -2,-95 -79,-7 -533,-2 -650,-2l-1634 0c-22,0 -307,-10 -319,8l2602 -2 1 89 -2605 -3z"/>
   <path class="fil0" d="M817 1937c26,10 45,12 73,1 13,-53 6,-286 7,-371 0,-43 6,-91 -44,-91 -62,1 -43,111 -43,211 0,69 -7,191 7,250z"/>
   <path class="fil0" d="M3186 1547l0 253c1,49 -14,134 30,145 70,18 56,-67 56,-118 0,-72 10,-296 -9,-343 -68,-23 -77,-2 -77,63z"/>
   <path class="fil0" d="M2656 2561c47,-31 76,50 38,73 -28,17 -50,-1 -56,-19 -17,-45 18,-54 18,-54zm50 -34c-93,-92 -183,98 -85,153 42,23 65,1 93,-13l-11 55c-78,17 -9,-17 -117,-17 15,81 120,93 163,37 30,-39 20,-177 18,-235 -38,0 -44,-6 -61,20z"/>
   <polygon class="fil0" points="835,2226 1379,2226 1382,2172 831,2171 "/>
   <polygon class="fil0" points="2701,2225 3251,2225 3252,2172 2700,2171 "/>
   <path class="fil0" d="M1249 2635c-39,10 -67,8 -65,-42 2,-44 29,-43 65,-34 17,33 17,42 0,76zm5 -109c-46,-53 -128,-11 -126,74 2,80 81,121 127,68 12,17 -7,19 62,19l-1 -180c-50,0 -40,-9 -62,19z"/>
   <path class="fil0" d="M2969 2560c46,-27 74,49 37,73 -26,18 -49,2 -56,-17 -17,-48 19,-56 19,-56zm51 -35c-49,-50 -131,-9 -129,75 2,80 84,118 132,69l1 18 56 -1 -1 -178 -59 17z"/>
   <path class="fil0" d="M2110 2562c50,-36 77,51 38,73 -26,15 -49,-2 -56,-21 -3,-9 -4,-20 -1,-30 7,-23 8,-14 19,-22zm50 -34c-50,-62 -128,1 -127,72 2,67 80,126 127,66 13,19 5,16 21,20 6,2 33,1 41,1l-1 -180c-8,0 -34,-1 -40,1 -21,6 -15,24 -19,15 0,-1 -1,3 -2,5z"/>
   <polygon class="fil0" points="1479,2505 1561,2505 1561,2461 1425,2461 1424,2687 1562,2687 1558,2643 1479,2643 1479,2593 1552,2592 1553,2551 1481,2551 1479,2527 "/>
   <path class="fil0" d="M2437 2579c14,-41 56,-41 66,0l-66 0zm118 48c-13,0 -37,-1 -48,1 -34,7 2,1 -27,12 -26,11 -37,-6 -44,-30l121 0c28,-121 -155,-146 -174,-34 -22,126 142,154 172,51z"/>
   <path class="fil0" d="M1648 2553c30,-17 29,-2 40,5 15,8 -13,4 25,8 6,1 21,0 28,0 -10,-79 -114,-73 -139,-37 -53,80 74,75 89,109 -27,22 -29,8 -46,-2 -9,-5 7,-13 -56,-7 5,35 20,49 53,57 94,22 131,-62 73,-95 -43,-25 -63,1 -67,-38z"/>
   <path class="fil0" d="M2250 2518c-15,35 8,32 20,42 0,97 -13,127 91,127l0 -46 -35 -8 -1 -80 36 0 -1 -46 -35 0 0 -42 -45 -2 -30 55z"/>
   <path class="fil0" d="M1763 2533c5,53 23,-21 22,67 -1,77 16,87 91,87l0 -46 -36 -6 0 -82 36 0c2,-59 5,-46 -36,-46l0 -44 -55 0c0,8 1,21 -1,29 -9,35 -25,-9 -21,41z"/>
   <polygon class="fil0" points="985,2687 1087,2687 1112,2686 1112,2645 1041,2644 1040,2461 986,2461 985,2487 "/>
   <path class="fil0" d="M1962 2620c0,-63 11,-42 55,-60l1 -52c-31,-1 -39,9 -53,24 0,-2 -4,-12 -4,-12 -5,-12 -2,-5 -8,-13l-46 0 0 180 55 0 0 -67z"/>
   <path class="fil2" d="M1004 1658c9,-37 61,-73 116,-76 106,-5 395,113 529,59 -142,-5 -227,-22 -357,-53 -96,-22 -255,-60 -288,70z"/>
   <path class="fil2" d="M2428 1641c242,66 562,-165 650,11 -39,-119 -171,-92 -295,-62 -128,32 -216,45 -355,51z"/>
   <polygon class="fil0" points="2807,2687 2862,2687 2862,2533 2861,2507 2807,2507 "/>
   <path class="fil3" d="M835 2226l-4 -55 551 1 -3 54c14,-8 13,-22 5,-56l-97 -5c-9,-4 -1,1 -7,-13 -6,-15 2,-4 -8,-17l4 26 -339 1 4 -54c-10,18 -11,35 -5,57l-106 2 -4 40c1,36 0,8 9,19z"/>
   <path class="fil2" d="M1249 2635c17,-34 17,-43 0,-76 -36,-9 -63,-10 -65,34 -2,50 26,52 65,42z"/>
   <path class="fil2" d="M2110 2562c-11,8 -12,-1 -19,22 -3,10 -2,21 1,30 7,19 30,36 56,21 39,-22 12,-109 -38,-73z"/>
   <path class="fil2" d="M2656 2561c0,0 -35,9 -18,54 6,18 28,36 56,19 38,-23 9,-104 -38,-73z"/>
   <path class="fil2" d="M2969 2560c0,0 -36,8 -19,56 7,19 30,35 56,17 37,-24 9,-100 -37,-73z"/>
   <path class="fil2" d="M2146 1680c16,31 20,56 54,58l3 -124c-27,14 -48,39 -57,66z"/>
   <path class="fil2" d="M2917 1853c-2,-1 -4,-5 -4,-3 -7,11 4,3 -22,-15 -55,-40 -70,-132 31,-194 -118,22 -129,186 -5,212z"/>
   <path class="fil2" d="M1165 1853c125,-21 116,-197 -6,-212 38,21 71,39 75,99 4,73 -37,92 -69,113z"/>
   <path class="fil0" d="M2862 2437c-12,-4 -31,-12 -47,-2 -11,7 -18,22 -9,38 16,26 69,27 56,-36z"/>
   <path class="fil2" d="M2437 2579l66 0c-10,-41 -52,-41 -66,0z"/>
  </g>
 </g>
</svg>
